<svg width="40" height="40" viewBox="0 0 40 40" fill="none" xmlns="http://www.w3.org/2000/svg">
<circle cx="20" cy="20" r="19.5" stroke="white"/>
<path d="M20.25 14.2461C21.2226 14.2461 22.0136 15.0371 22.0136 16.0098C22.0136 16.9795 21.2226 17.7705 20.25 17.7705C19.2773 17.7705 18.4863 16.9795 18.4863 16.0098C18.4863 15.0371 19.2773 14.2461 20.25 14.2461ZM20.25 20.2666C22.5996 20.2666 24.5097 18.3564 24.5097 16.0098C24.5097 13.6602 22.5996 11.75 20.25 11.75C17.9004 11.75 15.9931 13.6602 15.9931 16.0098C15.9931 18.3564 17.9004 20.2666 20.25 20.2666ZM21.9726 23.7412C22.8398 23.542 23.6748 23.1992 24.4453 22.7158C25.0283 22.3496 25.2041 21.5791 24.8379 20.9961C24.4687 20.4102 23.7011 20.2344 23.1152 20.6035C21.372 21.6992 19.1279 21.6992 17.3818 20.6035C16.7988 20.2344 16.0283 20.4102 15.6621 20.9961C15.2959 21.5791 15.4717 22.3496 16.0547 22.7158C16.8252 23.1992 17.6601 23.542 18.5273 23.7412L16.1455 26.1201C15.6592 26.6064 15.6592 27.3975 16.1455 27.8838C16.3916 28.127 16.708 28.25 17.0273 28.25C17.3467 28.25 17.666 28.127 17.9121 27.8838L20.25 25.5459L22.5908 27.8838C23.0771 28.373 23.8652 28.373 24.3545 27.8838C24.8408 27.3975 24.8408 26.6064 24.3545 26.1201L21.9726 23.7412Z" fill="white"/>
</svg>
