<svg width="40" height="40" viewBox="0 0 40 40" fill="none" xmlns="http://www.w3.org/2000/svg">
<circle cx="20" cy="20" r="19.5" stroke="white"/>
<path d="M28.0284 13.3592C27.3493 13.68 26.1934 14.2817 25.6126 14.3967C25.5901 14.4025 25.5718 14.41 25.5501 14.4159C24.8726 13.7475 23.9443 13.3334 22.9168 13.3334C20.8459 13.3334 19.1668 15.0125 19.1668 17.0834C19.1668 17.1925 19.1576 17.3934 19.1668 17.5C16.4851 17.5 14.5268 16.1009 13.0609 14.3025C12.8651 14.0609 12.6568 14.1867 12.6134 14.3584C12.5159 14.7467 12.4826 15.3959 12.4826 15.8592C12.4826 17.0267 13.3951 18.1734 14.8159 18.8842C14.5543 18.9517 14.2659 19 13.9659 19C13.6126 19 13.2059 18.9075 12.8501 18.7209C12.7184 18.6517 12.4343 18.6709 12.5184 19.0075C12.8559 20.3567 14.3959 21.3042 15.7718 21.58C15.4593 21.7642 14.7926 21.7267 14.4859 21.7267C14.3726 21.7267 13.9784 21.7 13.7234 21.6684C13.4909 21.64 13.1334 21.7 13.4326 22.1534C14.0751 23.1259 15.5284 23.7367 16.7793 23.76C15.6276 24.6634 13.7443 24.9934 11.9401 24.9934C11.5751 24.985 11.5934 25.4009 11.8876 25.555C13.2184 26.2534 15.3984 26.6667 16.9559 26.6667C23.1476 26.6667 26.6668 21.9475 26.6668 17.4992C26.6668 17.4275 26.6651 17.2775 26.6626 17.1267C26.6626 17.1117 26.6668 17.0975 26.6668 17.0825C26.6668 17.06 26.6601 17.0384 26.6601 17.0159C26.6576 16.9025 26.6551 16.7967 26.6526 16.7417C27.1434 16.3875 27.8951 15.7725 28.2751 15.3017C28.4043 15.1417 28.3001 14.9475 28.1243 15.0084C27.6718 15.1659 26.8893 15.4709 26.3993 15.5292C27.3801 14.88 27.8651 14.315 28.2818 13.6875C28.4243 13.4734 28.2459 13.2559 28.0284 13.3592Z" fill="white"/>
</svg>
