<svg width="40" height="40" viewBox="0 0 40 40" fill="none" xmlns="http://www.w3.org/2000/svg">
<circle cx="20" cy="20" r="19.5" stroke="white"/>
<g clip-path="url(#clip0)">
<path d="M20.0041 15.665C17.4487 15.665 15.3876 17.7262 15.3876 20.2815C15.3876 22.8369 17.4487 24.8981 20.0041 24.8981C22.5595 24.8981 24.6206 22.8369 24.6206 20.2815C24.6206 17.7262 22.5595 15.665 20.0041 15.665ZM20.0041 23.2829C18.3528 23.2829 17.0028 21.9369 17.0028 20.2815C17.0028 18.6262 18.3487 17.2802 20.0041 17.2802C21.6595 17.2802 23.0054 18.6262 23.0054 20.2815C23.0054 21.9369 21.6554 23.2829 20.0041 23.2829ZM25.8862 15.4762C25.8862 16.0749 25.4041 16.553 24.8095 16.553C24.2108 16.553 23.7327 16.0708 23.7327 15.4762C23.7327 14.8815 24.2148 14.3994 24.8095 14.3994C25.4041 14.3994 25.8862 14.8815 25.8862 15.4762ZM28.9438 16.569C28.8755 15.1266 28.5461 13.849 27.4894 12.7963C26.4367 11.7436 25.159 11.4141 23.7166 11.3418C22.23 11.2574 17.7742 11.2574 16.2876 11.3418C14.8492 11.4101 13.5715 11.7396 12.5148 12.7923C11.4581 13.8449 11.1327 15.1226 11.0604 16.565C10.976 18.0516 10.976 22.5074 11.0604 23.994C11.1287 25.4365 11.4581 26.7141 12.5148 27.7668C13.5715 28.8195 14.8452 29.149 16.2876 29.2213C17.7742 29.3057 22.23 29.3057 23.7166 29.2213C25.159 29.153 26.4367 28.8235 27.4894 27.7668C28.542 26.7141 28.8715 25.4365 28.9438 23.994C29.0282 22.5074 29.0282 18.0557 28.9438 16.569ZM27.0233 25.5891C26.7099 26.3766 26.1032 26.9833 25.3117 27.3007C24.1264 27.7708 21.3139 27.6623 20.0041 27.6623C18.6943 27.6623 15.8778 27.7668 14.6965 27.3007C13.909 26.9873 13.3023 26.3807 12.9849 25.5891C12.5148 24.4039 12.6233 21.5914 12.6233 20.2815C12.6233 18.9717 12.5188 16.1552 12.9849 14.974C13.2983 14.1865 13.905 13.5798 14.6965 13.2624C15.8818 12.7923 18.6943 12.9007 20.0041 12.9007C21.3139 12.9007 24.1304 12.7963 25.3117 13.2624C26.0992 13.5757 26.7059 14.1824 27.0233 14.974C27.4934 16.1592 27.3849 18.9717 27.3849 20.2815C27.3849 21.5914 27.4934 24.4079 27.0233 25.5891Z" fill="white"/>
</g>
<defs>
<clipPath id="clip0">
<rect width="18" height="20.5714" fill="white" transform="translate(11 10)"/>
</clipPath>
</defs>
</svg>
