<svg width="40" height="40" viewBox="0 0 40 40" fill="none" xmlns="http://www.w3.org/2000/svg">
<circle cx="20" cy="20" r="19.5" stroke="white"/>
<path d="M27.9235 16.0868C28.052 15.6528 27.9235 15.3333 27.3055 15.3333H25.2603C24.7395 15.3333 24.4999 15.6076 24.3714 15.9132C24.3714 15.9132 23.3298 18.4514 21.8576 20.0972C21.3819 20.5729 21.1631 20.7257 20.9027 20.7257C20.7742 20.7257 20.5763 20.5729 20.5763 20.1389V16.0868C20.5763 15.566 20.4305 15.3333 19.9999 15.3333H16.7846C16.4583 15.3333 16.2638 15.5764 16.2638 15.8021C16.2638 16.2951 16.9999 16.4097 17.0763 17.7986V20.8125C17.0763 21.4722 16.9583 21.5938 16.6978 21.5938C16.0034 21.5938 14.3159 19.0451 13.3159 16.1285C13.1145 15.5625 12.9166 15.3333 12.3923 15.3333H10.3471C9.76381 15.3333 9.64575 15.6076 9.64575 15.9132C9.64575 16.4549 10.3402 19.1458 12.8784 22.7014C14.5694 25.1285 16.9513 26.4444 19.118 26.4444C20.4201 26.4444 20.5798 26.1528 20.5798 25.6493C20.5798 23.3299 20.4617 23.1111 21.1145 23.1111C21.4166 23.1111 21.9374 23.2639 23.1527 24.434C24.5416 25.8229 24.7708 26.4444 25.5485 26.4444H27.5937C28.177 26.4444 28.4721 26.1528 28.302 25.5764C27.9131 24.3646 25.2846 21.8715 25.1666 21.7049C24.8645 21.316 24.9513 21.1424 25.1666 20.7951C25.1701 20.7917 27.6666 17.2778 27.9235 16.0868Z" fill="white"/>
</svg>
